<?xml version="1.0" standalone="no"?>
<!DOCTYPE svg PUBLIC "-//W3C//DTD SVG 20010904//EN"
 "http://www.w3.org/TR/2001/REC-SVG-20010904/DTD/svg10.dtd">
<svg version="1.0" xmlns="http://www.w3.org/2000/svg"
 width="1484.000000pt" height="570.000000pt" viewBox="0 0 1484.000000 570.000000"
 preserveAspectRatio="xMidYMid meet">
<metadata>
Created by potrace 1.14, written by Peter Selinger 2001-2017
</metadata>
<g transform="translate(0.000000,570.000000) scale(0.100000,-0.100000)"
fill="#000000" stroke="none">
<path d="M1905 5130 c-3 -5 -15 -10 -26 -10 -10 0 -27 -4 -37 -10 -9 -5 -34
-17 -55 -26 -34 -15 -167 -134 -167 -149 0 -4 -11 -21 -25 -39 -13 -17 -36
-59 -50 -92 -14 -32 -30 -68 -35 -79 -9 -18 -15 -41 -41 -150 -50 -212 -54
-609 -8 -761 5 -17 9 -40 9 -52 0 -11 4 -23 9 -27 6 -3 13 -26 17 -50 3 -25
10 -48 15 -51 5 -3 9 -14 9 -25 0 -10 5 -19 10 -19 6 0 10 -7 10 -15 0 -44
140 -221 222 -280 97 -70 270 -113 410 -101 167 14 324 36 346 49 14 10 18
252 3 261 -4 3 -19 -3 -31 -14 -13 -11 -26 -20 -30 -20 -3 0 -15 -8 -26 -17
-28 -25 -79 -53 -97 -53 -9 0 -17 -4 -19 -9 -1 -6 -42 -15 -90 -22 -71 -11
-102 -11 -165 0 -43 7 -80 17 -83 21 -3 4 -15 10 -27 14 -24 8 -113 91 -113
106 0 5 -6 15 -13 22 -7 7 -20 29 -29 48 -14 32 -21 52 -47 143 -20 66 -41
214 -42 293 -1 45 -5 87 -9 94 -5 8 -3 19 5 27 11 10 101 13 461 13 l447 0 -6
168 c-7 197 -18 273 -64 422 -21 68 -65 162 -89 191 -8 8 -14 18 -14 22 0 9
-71 79 -110 108 -19 14 -60 34 -90 44 -30 9 -63 21 -72 26 -25 12 -255 11
-263 -1z m223 -167 c60 -28 142 -125 142 -168 0 -7 3 -15 8 -17 11 -5 42 -131
42 -170 0 -19 4 -38 9 -44 5 -5 11 -65 13 -134 l3 -125 -317 -3 -318 -2 0 72
c0 64 20 196 48 323 20 92 123 255 161 255 6 0 11 4 11 9 0 25 148 28 198 4z"/>
<path d="M6195 5130 c-3 -5 -17 -10 -30 -10 -13 0 -26 -4 -30 -9 -3 -5 -19
-12 -35 -16 -17 -4 -30 -11 -30 -16 0 -5 -5 -9 -11 -9 -10 0 -71 -42 -94 -65
-50 -49 -165 -241 -165 -276 0 -8 -4 -19 -8 -24 -14 -16 -54 -202 -69 -320
-12 -89 -9 -369 4 -455 28 -180 47 -249 98 -355 47 -98 103 -176 158 -224 11
-9 33 -28 50 -43 18 -15 38 -28 45 -28 6 0 12 -4 12 -9 0 -5 8 -11 18 -14 9
-3 40 -14 67 -24 80 -31 196 -47 283 -39 181 15 328 36 350 49 8 6 12 44 12
133 0 117 -1 124 -20 124 -11 0 -20 -4 -20 -10 0 -5 -7 -10 -15 -10 -9 0 -18
-7 -21 -15 -4 -8 -10 -15 -15 -15 -5 0 -27 -11 -49 -25 -22 -14 -46 -25 -55
-25 -8 0 -15 -4 -15 -9 0 -5 -39 -15 -86 -22 -96 -14 -213 -3 -270 25 -57 29
-164 146 -164 180 0 9 -4 16 -9 16 -5 0 -11 12 -14 28 -8 39 -28 114 -38 137
-4 11 -10 38 -13 60 -19 132 -25 198 -25 263 l-1 72 448 0 c247 0 451 2 453 4
7 7 -9 347 -19 412 -13 81 -34 167 -44 179 -4 5 -8 18 -8 30 0 11 -7 29 -15
39 -8 11 -15 28 -15 38 0 10 -3 18 -8 18 -4 0 -13 13 -20 29 -12 27 -19 37
-63 88 -33 39 -86 79 -124 96 -22 10 -48 22 -57 27 -10 6 -27 10 -37 10 -11 0
-23 5 -26 10 -4 6 -58 10 -130 10 -72 0 -126 -4 -130 -10z m222 -166 c40 -19
113 -91 113 -111 0 -7 4 -13 9 -13 5 0 11 -10 14 -22 5 -22 21 -71 38 -113 15
-40 50 -367 41 -392 -7 -20 -630 -19 -638 1 -9 24 16 227 44 351 31 139 105
256 188 300 39 20 147 19 191 -1z"/>
<path d="M7855 5130 c-3 -5 -19 -10 -35 -10 -16 0 -32 -4 -35 -10 -3 -5 -14
-10 -23 -10 -9 0 -30 -7 -46 -15 -15 -8 -35 -15 -42 -15 -8 0 -14 -3 -14 -7 0
-5 -20 -17 -45 -28 -25 -11 -45 -23 -45 -27 0 -5 -7 -8 -15 -8 -8 0 -15 -4
-15 -9 0 -5 -9 -13 -21 -16 -12 -4 -37 -22 -57 -41 -43 -40 -68 -45 -57 -11 4
12 9 57 12 100 l5 77 -143 0 -142 0 8 -97 c21 -274 21 -1377 -1 -1670 l-7
-103 142 0 142 0 -6 93 c-15 234 -24 732 -18 1033 l6 332 31 31 c62 63 97 85
191 121 53 20 169 40 247 42 l88 3 0 128 0 127 -49 0 c-28 0 -53 -4 -56 -10z"/>
<path d="M10725 5130 c-3 -5 -15 -10 -26 -10 -10 0 -27 -4 -37 -10 -9 -5 -34
-17 -54 -26 -21 -9 -38 -20 -38 -25 0 -5 -6 -9 -13 -9 -11 0 -60 -50 -121
-124 -40 -49 -108 -194 -127 -271 -6 -28 -15 -59 -20 -70 -19 -49 -39 -261
-39 -423 0 -159 18 -340 39 -397 5 -11 20 -59 36 -107 15 -48 30 -89 34 -90 3
-2 19 -30 35 -62 35 -69 185 -226 216 -226 5 0 10 -4 10 -8 0 -4 24 -16 53
-26 28 -10 61 -21 72 -26 50 -20 168 -33 247 -26 153 13 337 38 355 49 4 3 7
64 5 136 l-3 132 -37 -23 c-20 -12 -38 -26 -40 -30 -2 -4 -10 -8 -18 -8 -8 0
-14 -4 -14 -8 0 -10 -65 -42 -85 -42 -8 0 -15 -4 -15 -9 0 -5 -39 -15 -86 -22
-103 -15 -211 -2 -273 33 -51 30 -121 95 -121 113 0 8 -4 15 -9 15 -10 0 -61
115 -61 139 0 9 -4 21 -8 26 -11 12 -31 123 -43 225 -4 41 -11 103 -15 137 -5
45 -3 67 6 78 11 13 72 15 456 15 l444 0 0 81 c0 118 -21 372 -31 384 -5 5 -9
20 -9 35 -1 51 -77 240 -119 294 -52 67 -144 143 -183 151 -15 4 -30 11 -33
16 -4 5 -17 9 -30 9 -13 0 -27 5 -30 10 -4 6 -60 10 -135 10 -75 0 -131 -4
-135 -10z m251 -184 c40 -26 89 -86 110 -136 6 -14 16 -36 22 -50 26 -60 55
-261 56 -395 l1 -60 -311 -3 c-246 -2 -314 0 -322 11 -7 8 -8 26 -2 52 5 22
10 63 10 90 0 55 27 210 41 237 5 10 9 26 9 35 0 29 79 164 113 194 57 50 86
60 162 56 56 -3 79 -9 111 -31z"/>
<path d="M24 5008 c4 -51 8 -113 11 -138 10 -98 6 -1430 -5 -1449 -5 -11 -10
-58 -10 -105 l0 -86 283 1 c155 0 305 4 332 9 28 5 69 12 93 16 23 3 42 11 42
15 0 5 11 9 24 9 14 0 27 4 31 9 3 5 19 12 35 16 17 4 30 11 30 16 0 5 4 9 10
9 13 0 53 34 117 99 53 55 127 187 139 250 4 17 11 34 15 37 5 3 9 18 9 34 0
16 4 31 9 34 5 3 12 45 15 93 4 49 12 131 18 183 16 133 -15 472 -51 565 -18
45 -33 91 -38 113 -3 12 -9 22 -14 22 -5 0 -9 6 -9 14 0 18 -32 76 -42 76 -5
0 -8 6 -8 13 0 6 -26 37 -58 67 -72 69 -87 80 -137 104 -22 10 -48 23 -57 27
-10 5 -26 9 -36 9 -10 0 -24 6 -30 13 -10 9 -101 13 -369 15 l-355 4 6 -94z
m585 -69 c158 -50 208 -101 292 -294 37 -85 78 -620 50 -648 -6 -6 -11 -44
-11 -83 0 -40 -4 -75 -9 -78 -4 -3 -11 -33 -15 -67 -4 -34 -11 -69 -15 -78 -5
-9 -22 -43 -37 -76 -39 -80 -115 -158 -189 -191 -55 -24 -71 -26 -216 -27 -86
-1 -161 2 -166 6 -10 10 -11 1505 -1 1530 7 15 23 17 144 17 76 0 154 -5 173
-11z"/>
<path d="M2854 5048 c4 -29 12 -237 18 -463 10 -392 0 -1135 -18 -1297 l-6
-58 446 0 446 0 0 85 0 85 -308 0 -309 0 -6 272 c-12 475 -2 1150 19 1366 l6
62 -147 0 -147 0 6 -52z"/>
<path d="M3917 4998 c2 -57 8 -156 13 -220 13 -147 13 -1091 0 -1218 -5 -52
-10 -147 -11 -210 l-3 -115 143 -3 142 -3 -6 93 c-8 120 -8 1553 0 1681 l6 97
-143 0 -144 0 3 -102z"/>
<path d="M4382 5068 c5 -18 12 -44 15 -58 2 -14 8 -34 13 -45 4 -11 15 -49 25
-85 9 -36 21 -75 26 -88 5 -13 9 -34 9 -47 0 -13 4 -26 9 -29 5 -4 12 -30 16
-59 4 -28 11 -56 15 -62 4 -5 10 -23 13 -40 10 -55 49 -220 57 -240 5 -11 14
-47 20 -80 13 -63 24 -113 41 -180 6 -22 16 -69 23 -105 7 -36 15 -72 18 -80
4 -8 9 -31 11 -50 3 -19 17 -89 32 -155 14 -66 33 -154 41 -195 8 -41 19 -97
25 -125 6 -27 13 -65 16 -82 l5 -33 179 0 179 0 10 24 c5 13 12 52 16 85 4 34
11 64 15 67 5 3 9 22 9 43 0 21 3 41 8 45 6 7 22 88 39 199 3 20 9 40 14 43 5
3 9 20 9 39 0 19 4 45 10 60 5 14 15 52 20 83 16 86 37 180 70 312 5 19 16 67
25 105 19 85 26 112 60 240 15 55 29 114 32 130 3 17 9 35 14 40 4 6 11 34 15
63 4 29 11 55 15 58 5 3 9 18 9 34 0 15 3 30 8 32 7 3 42 132 42 156 0 9 -35
12 -144 12 l-143 0 -6 -52 c-7 -52 -29 -186 -48 -283 -5 -27 -16 -88 -24 -135
-19 -115 -31 -177 -71 -370 -8 -41 -19 -97 -24 -125 -5 -27 -16 -81 -25 -120
-10 -38 -19 -87 -22 -108 -3 -20 -9 -40 -14 -43 -5 -3 -9 -15 -9 -27 0 -23
-28 -148 -40 -182 -5 -11 -13 -46 -20 -77 -7 -38 -16 -58 -26 -58 -8 0 -14 9
-14 19 0 11 -4 22 -10 26 -5 3 -12 32 -16 65 -4 33 -11 60 -15 60 -5 0 -9 14
-9 30 0 17 -4 38 -9 48 -5 9 -14 44 -21 77 -7 33 -16 78 -20 100 -5 22 -18 87
-29 145 -12 58 -26 119 -31 136 -6 17 -10 42 -10 57 0 14 -4 36 -9 49 -5 13
-17 70 -26 128 -9 58 -20 121 -25 140 -5 19 -16 82 -25 140 -9 58 -19 114 -22
125 -6 24 -21 111 -31 180 l-7 50 -147 3 -147 3 11 -33z"/>
<path d="M8764 4257 c-3 -8 -4 -52 -2 -98 l3 -84 280 0 280 0 3 98 3 97 -281
0 c-225 0 -282 -3 -286 -13z"/>
<path d="M10695 3050 c-223 -26 -373 -107 -548 -298 -110 -119 -182 -253 -310
-567 -35 -88 -94 -230 -129 -315 -36 -85 -78 -189 -95 -230 l-29 -75 -213 -5
-213 -5 -24 -28 -24 -28 0 -585 0 -585 25 -24 24 -25 426 0 427 0 29 29 29 29
0 574 c0 554 -1 574 -20 606 -11 17 -21 33 -22 33 -2 1 -55 4 -119 8 l-117 6
138 348 c175 441 242 572 360 716 l55 66 5 -1095 c5 -1154 4 -1125 50 -1150
10 -5 66 -10 124 -10 l106 0 0 -120 0 -120 -121 0 c-67 0 -129 -5 -141 -11
-32 -17 -51 -74 -38 -115 19 -57 45 -64 249 -64 176 0 181 1 208 24 l28 24 3
191 3 191 180 0 179 0 0 -169 c0 -97 5 -181 11 -200 19 -54 46 -61 248 -61
176 0 181 1 208 24 23 20 28 32 28 71 0 39 -5 51 -28 71 -26 22 -36 24 -148
24 l-119 0 0 120 0 120 109 0 c104 0 109 1 135 26 l26 27 2 1100 3 1100 43
-44 c95 -97 186 -263 300 -549 38 -96 88 -215 109 -265 22 -49 68 -162 103
-250 35 -88 72 -170 83 -182 54 -60 157 -20 157 60 0 37 -312 814 -390 970
-95 190 -147 266 -264 382 -86 85 -115 107 -196 148 -162 81 -209 89 -545 92
-159 2 -321 0 -360 -5z m700 -207 l60 -19 3 -542 2 -542 -455 0 -455 0 2 542
3 542 45 14 c83 26 163 30 450 27 247 -3 293 -5 345 -22z m-487 -1755 l2 -458
-180 0 -180 0 0 460 0 460 178 -2 177 -3 3 -457z m552 2 l0 -460 -180 0 -180
0 0 460 0 460 180 0 180 0 0 -460z m-1580 -175 l0 -455 -292 2 -293 3 -3 440
c-1 242 0 446 3 453 3 9 72 12 295 12 l290 0 0 -455z"/>
<path d="M8379 1381 c-21 -22 -29 -39 -29 -66 0 -27 8 -44 29 -66 l29 -29 212
0 c132 0 219 4 232 11 32 17 51 74 38 115 -21 62 -31 64 -268 64 l-214 0 -29
-29z"/>
<path d="M8635 985 c-37 -36 -35 -97 4 -136 28 -27 34 -29 109 -29 71 0 84 3
110 25 36 30 45 69 27 112 -19 44 -42 53 -140 53 -78 0 -88 -2 -110 -25z"/>
<path d="M8731 606 c-54 -30 -66 -97 -25 -145 22 -27 32 -31 76 -31 61 0 86
13 103 53 18 43 9 82 -27 112 -33 28 -88 33 -127 11z"/>
</g>
</svg>
